<svg viewBox="0 0 2337.85 294.53" xmlns="http://www.w3.org/2000/svg" data-name="Layer 2" id="Layer_2">
  <defs>
    <style>
      .cls-1 {
        fill: #56565a;
      }
    </style>
  </defs>
  <g data-name="Layer 1" id="Layer_1-2">
    <g>
      <g>
        <g>
          <path d="M1197.65,147.09c-9.09,7.79-21.64,10.6-36.13,10.6h-20.99s0,59.5,0,60.54c0,1.04-.69,3.5-3.45,3.5h-13.94c-1.87,0-3.6-1.42-3.6-3.41V75.95c0-1.73,1.49-3.51,3.6-3.51h38.37c14.5,0,27.05,2.81,36.13,10.6,9.3,8.01,14.5,17.74,14.5,32.02s-5.19,24.23-14.5,32.02ZM1181.42,95.38c-5.41-3.89-12.12-5.84-21.64-5.84h-19.26v51.06h19.26c9.52,0,16.23-1.95,21.64-5.63,5.19-3.89,9.09-10.6,9.09-19.9s-3.89-16.01-9.09-19.69Z" class="cls-1"></path>
          <path d="M1305.2,224.33c-41.98,0-77.03-29.21-77.03-77.03s35.05-77.03,77.03-77.03,77.02,29.21,77.02,77.03-35.05,77.03-77.02,77.03ZM1305.2,88.46c-30.51,0-55.61,21.85-55.61,58.42s25.31,58.42,55.61,58.42,55.6-22.07,55.6-58.42-25.1-58.42-55.6-58.42Z" class="cls-1"></path>
          <path d="M1478.99,221.74h-66.7c-1.53,0-3.44-1.22-3.44-3.44V75.89c0-2.07,1.81-3.44,3.44-3.44h14.12c2.33,0,3.44,2.01,3.44,3.51v127.82s47.24-.01,49.09,0c1.85.01,3.49,1.45,3.49,3.43v11.1c0,1.41-1.26,3.44-3.43,3.44Z" class="cls-1"></path>
          <path d="M1598,75.42c-.63,1.05-50.15,83.79-50.15,83.79,0,0,0,57.41,0,59.12,0,1.71-1.39,3.41-3.4,3.41h-14.19c-1.92,0-3.4-1.6-3.4-3.41v-59.12s-49.56-82.78-50.12-83.75c-.56-.97.01-3.01,1.64-3.01h16.71c2.68,0,4.33,1.58,5.07,2.9.75,1.32,37.09,65.68,37.09,65.68,0,0,36.31-63.99,37.25-65.6.94-1.61,2.67-2.99,5.11-2.99h16.9c1.71,0,2.12,1.92,1.49,2.97Z" class="cls-1"></path>
          <path d="M1814.86,75.46c-.28.98-34.68,120.41-41.15,142.88-.67,2.33-3.88,3.62-4.72,3.62h-14.52c-1.43,0-2.79-1.43-3.45-3.65-.66-2.22-34.83-117.08-34.83-117.08,0,0-34,114.95-34.63,117.11-.63,2.16-2.02,3.62-3.47,3.62h-14.3c-1.06,0-4.23-1.29-4.9-3.63-6.48-22.48-40.86-141.8-41.15-142.89-.33-1.2.61-2.99,2.4-2.99h14.84c2.82,0,4.56,2.16,4.77,2.94.21.78,31.43,114.76,31.43,114.76,0,0,32.96-112.82,33.52-114.69.56-1.87,2.41-3.01,3.87-3.01,1.06,0,12.99,0,15.31,0,2.33,0,3.71,2.04,3.99,3,.28.96,33.53,114.7,33.53,114.7,0,0,31.07-113.52,31.41-114.66.33-1.14,2.14-3.04,4.77-3.04h15.02c1.9,0,2.56,1.92,2.25,3.01Z" class="cls-1"></path>
          <path d="M1899.7,224.33c-41.98,0-77.03-29.21-77.03-77.03s35.05-77.03,77.03-77.03,77.02,29.21,77.02,77.03-35.05,77.03-77.02,77.03ZM1899.7,88.46c-30.51,0-55.61,21.85-55.61,58.42s25.31,58.42,55.61,58.42,55.6-22.07,55.6-58.42-25.1-58.42-55.6-58.42Z" class="cls-1"></path>
          <path d="M2071.95,224.33c-41.98,0-77.03-29.21-77.03-77.03s35.05-77.03,77.03-77.03,77.02,29.21,77.02,77.03-35.05,77.03-77.02,77.03ZM2071.95,88.46c-30.51,0-55.61,21.85-55.61,58.42s25.31,58.42,55.61,58.42,55.6-22.07,55.6-58.42-25.1-58.42-55.6-58.42Z" class="cls-1"></path>
          <path d="M2276.44,202.27c-10.82,9.95-29.86,19.47-55.82,19.47h-41.5c-1.65,0-3.51-1.21-3.51-3.41V75.95c0-1.89,1.43-3.51,3.51-3.51h41.5c25.96,0,45,9.52,55.82,19.47,10.82,9.95,23.15,27.26,23.15,55.17s-12.33,45.22-23.15,55.17ZM2260.42,104.25c-8.22-7.79-21.64-13.85-39.81-13.85h-24.02v113.16h24.02c18.17,0,31.59-6.06,39.81-13.85,8.22-7.79,17.74-20.99,17.74-42.63s-9.52-35.05-17.74-42.84Z" class="cls-1"></path>
        </g>
        <path d="M2303.2,87.72v-.1c0-9.46,7.67-17.43,17.32-17.43s17.33,7.87,17.33,17.32v.1c0,9.46-7.67,17.43-17.33,17.43s-17.32-7.87-17.32-17.33ZM2335.86,87.62v-.1c0-8.46-6.57-15.43-15.34-15.43s-15.33,7.07-15.33,15.54v.1c0,8.46,6.57,15.43,15.33,15.43s15.34-7.07,15.34-15.54ZM2313.35,78.26h8.47c4.18,0,7.27,1.89,7.27,5.98,0,2.89-1.59,4.78-3.99,5.57l4.58,6.47h-5.28l-3.88-5.68h-2.79v5.68h-4.38v-18.03ZM2321.52,87.02c1.99,0,3.09-1,3.09-2.49,0-1.59-1.2-2.49-3.09-2.49h-3.78v4.98h3.78Z" class="cls-1"></path>
      </g>
      <g>
        <path d="M889.43,172.89v16.26h-7.25v-107.85h7.25v49.35c6.5-9.91,16.09-18.62,31.02-18.62,18.17,0,36.63,14.63,36.63,39.15v.29c0,24.52-18.46,39.44-36.63,39.44-15.07,0-24.83-8.57-31.02-18.03ZM949.26,151.77v-.31c0-19.79-13.75-32.5-29.56-32.5s-30.73,13.15-30.73,32.35v.29c0,19.36,15.07,32.35,30.73,32.35s29.56-11.96,29.56-32.19Z" class="cls-1"></path>
        <path d="M1029.07,113.79h7.98l-32.64,78c-6.66,15.81-14.33,21.44-25.12,21.44-5.76,0-9.91-1.05-14.92-3.27l2.51-6.35c3.99,1.93,7.24,2.81,12.87,2.81,7.83,0,12.99-4.58,18.6-17.74l-36.2-74.9h8.43l31.32,67.38,27.17-67.38Z" class="cls-1"></path>
      </g>
      <g>
        <path d="M103.32,184.45h-4.55c-.98-2.9-1.98-5.78-2.93-8.68-5.29-16.1-12.22-31.54-19.02-47.04-13.43-30.62-26.8-61.26-40.2-91.89-.31-.71-.64-1.41-1.34-2.03-.04.65-.1,1.3-.1,1.95,0,36.81-.02,73.61.01,110.42,0,6.46.19,12.92,1.43,19.3.62,3.22,1.54,6.33,3.09,9.24,1.88,3.54,4.6,5.91,8.6,6.92,4.7,1.18,9.46,1.86,14.26,2.36,2.02.21,4.04.36,6.16.54.03.54.05.98.07,1.41-1.55.41-66.21.51-68.68.11-.04-.42-.07-.87-.12-1.41.38-.09.69-.2,1.01-.23,4.72-.55,9.46-1.03,14.17-1.66,1.47-.2,2.9-.72,4.31-1.2,3.61-1.21,6.16-3.61,7.81-7.03,1.58-3.29,2.33-6.8,2.86-10.37.87-5.87,1.01-11.79,1.02-17.71.03-34.02.02-68.03,0-102.05,0-4.15-.28-8.28-1.41-12.32-1.89-6.77-6.16-11.16-12.86-13.3-4.38-1.4-8.89-1.9-13.44-2.22-.67-.05-1.34-.07-1.99-.11-.11-.3-.22-.48-.23-.66-.02-.26.04-.53.07-.77,1.58-.43,56.18-.61,61.07-.2,18.22,40.9,36.49,81.91,54.93,123.32.44-.96.73-1.53.97-2.13,7.95-19.36,15.9-38.72,23.84-58.08,5.73-13.95,11.45-27.91,17.19-41.86,2.57-6.26,4.28-12.74,5.29-19.42.09-.6.26-1.18.4-1.85h60.72c.03.56.05,1.02.08,1.52-.33.09-.58.19-.84.21-5.69.55-11.37,1.16-16.86,2.83-5.3,1.61-7.63,4.49-8.15,9.97-.13,1.35-.2,2.71-.2,4.07,0,44.56-.01,89.12,0,133.68,0,1.69.06,3.42.38,5.07,1,5.09,4.47,8.06,9.18,9.41,3.9,1.12,7.97,1.67,11.97,2.41,1.52.28,3.08.38,4.72.58v1.56h-88.24v-1.56c3.36-.33,6.61-.59,9.84-.98,2.83-.34,5.69-.66,8.45-1.31,4.98-1.17,10.38-5.3,10.52-12.88.01-.75,0-1.5,0-2.25,0-44.9,0-89.8,0-134.7,0-.78,0-1.56,0-2.34-.16-.03-.33-.06-.49-.09-20.93,51.14-41.86,102.28-62.79,153.41Z" class="cls-1"></path>
        <path d="M532.35,4.04c-.39-1.31.33-1.44,1.15-1.49,2.51-.14,5.03-.27,7.54-.41,7.4-.39,14.81-.8,22.21-1.18,6.39-.33,12.77-.64,19.16-.95,1.78-.09,2.26.38,2.3,2.22.02.82,0,1.63,0,2.45,0,27.49,0,54.97,0,82.46,0,.8,0,1.6,0,2.86.77-.65,1.22-.98,1.63-1.37,2.79-2.69,5.5-5.48,8.37-8.08,7.4-6.72,16.04-10.52,26.1-11.15,5.14-.32,10.2-.11,15.18,1.2,9.65,2.53,16.16,8.63,19.86,17.79,2.75,6.8,3.49,13.95,3.5,21.2.02,20.48,0,40.96.03,61.44,0,1.96.18,3.94.48,5.88.53,3.4,2.65,5.55,5.78,6.8,2.82,1.13,5.79,1.44,8.77,1.69.53.04,1.07.05,1.76.09.04.56.08,1.06.13,1.68h-62.31c-.02-.53-.05-1.02-.07-1.46,2.82-.46,5.51-.83,8.16-1.35,4.6-.9,6.93-2.76,7.67-9.1.07-.61.04-1.22.04-1.84,0-22.79,0-45.58,0-68.38,0-4.4-.74-8.67-2.57-12.69-2.66-5.83-6.96-9.8-13.45-10.63-5.12-.65-10.19.13-15.02,2.05-5.03,1.99-9.33,5-12.6,9.38-1.01,1.35-1.5,2.75-1.49,4.51.06,24.63.04,49.26.03,73.89,0,2.26.18,4.48.91,6.63.83,2.45,2.41,4.18,4.79,5.26,2.91,1.32,6,1.68,9.12,1.96.4.04.8.06,1.35.1.04.54.07,1.03.11,1.52-.33.11-.51.21-.71.23-.54.03-1.09.03-1.63.03-19.2,0-38.39,0-57.59,0-.41,0-.82.02-1.23,0-1.28-.07-1.28-.08-1.1-1.56,2.96-.5,5.9-.99,8.83-1.52.73-.13,1.45-.38,2.15-.62,3.17-1.1,5.07-3.34,5.69-6.61.25-1.33.4-2.7.4-4.05.02-50.14.02-100.29.02-150.43,0-3.52-.65-6.89-2.29-10.04-1.73-3.32-4.27-5.63-8.04-6.3-3.54-.63-7.1-1.17-10.66-1.74-.85-.14-1.71-.26-2.49-.37Z" class="cls-1"></path>
        <path d="M743.46,173.17c-.67.66-1.14,1.09-1.59,1.57-4.88,5.22-10.31,9.7-17.04,12.35-9.45,3.73-19.15,4.8-28.95,1.83-9.69-2.94-16.35-9.27-18.45-19.37-1.79-8.62-.89-17.07,3.87-24.77,2.15-3.47,5.05-6.19,8.53-8.34,5.3-3.28,11.08-5.46,16.98-7.35,8.6-2.76,17.25-5.37,25.84-8.18,3.09-1.01,6.04-2.44,9.07-3.64,1.18-.47,1.55-1.25,1.54-2.51-.06-6.05.08-12.11-.06-18.16-.13-5.67-.88-11.26-3.62-16.37-2.88-5.37-7.35-8.21-13.47-8.44-4.81-.18-9.28.77-13.33,3.58-2.11,1.46-2.68,3.17-2.07,5.54.98,3.81,1.93,7.64,2.81,11.48.35,1.52.52,3.08.72,4.62.51,3.96-1.2,7.03-4.04,9.54-3.05,2.7-6.69,4.19-10.74,4.44-2.15.13-4.37.05-6.48-.36-4.25-.81-7.23-3.45-8.84-7.41-2.67-6.57-1.66-12.66,2.87-18.12,2.86-3.45,6.37-6.12,10.28-8.26,7.87-4.31,16.27-6.82,25.23-7.4,8.8-.57,17.55-.1,26.18,1.73,5.31,1.13,10.26,3.26,14.31,7,4.56,4.21,7.21,9.54,8.33,15.56.69,3.73,1.2,7.55,1.22,11.33.04,10.06-.18,20.13-.4,30.19-.18,7.95-.52,15.9-.8,23.85-.07,2.11-.31,4.22-.24,6.32.14,4.03,1.57,7.57,4.55,10.36,3.51,3.28,8.66,3.24,12.18-.04,2.09-1.95,3.44-4.37,4.45-7,1.4-3.65,2.05-7.46,2.4-11.33.04-.4.08-.8.14-1.43.8-.04,1.57-.08,2.44-.12.09.51.24.9.22,1.27-.39,5.23-1.03,10.42-2.83,15.39-.46,1.28-.99,2.54-1.58,3.76-4.15,8.58-11.18,12.82-20.53,13.59-4.24.35-8.44.14-12.55-.93-6.75-1.75-11.39-6.11-14.66-12.11-.61-1.11-1.17-2.25-1.89-3.65ZM743.3,120.26c-2.08.75-3.99,1.41-5.88,2.12-5.67,2.16-11.21,4.59-16.24,8.01-6.54,4.45-11.14,10.32-12.88,18.19-.94,4.21-1.22,8.48-.86,12.78.31,3.67.88,7.3,2.58,10.63,2.03,3.98,5.08,6.8,9.6,7.45,8.53,1.22,16.89-1.72,22.33-9.31.36-.51.53-1.25.55-1.89.14-5.03.23-10.06.33-15.1.15-7.41.33-14.82.46-22.23.06-3.45,0-6.91,0-10.66Z" class="cls-1"></path>
        <path d="M344.62,155.91h2.41c0,1.28.08,2.48-.01,3.67-.44,5.38-1.46,10.64-3.66,15.61-4.09,9.25-11.31,13.93-21.28,14.69-3.69.28-7.35.12-10.96-.62-7.3-1.49-12.41-5.87-15.93-12.28-.33-.6-.62-1.21-.93-1.81-.27-.54-.55-1.07-.97-1.9-.65.58-1.17,1.04-1.69,1.51-2.83,2.54-5.49,5.31-8.53,7.57-6.48,4.82-13.88,7.28-21.94,7.97-5.64.48-11.14.16-16.51-1.68-11.66-3.99-18.66-14.11-18.14-26.4.12-2.91.4-5.85.99-8.69,1.54-7.45,5.74-13.1,12.18-17.12,5.64-3.53,11.86-5.73,18.14-7.74,8.6-2.76,17.25-5.39,25.84-8.19,2.64-.86,5.14-2.13,7.73-3.16,1.23-.49,1.72-1.25,1.7-2.63-.13-6.87-.02-13.74-.25-20.61-.17-5.21-1.25-10.26-4.01-14.8-2.82-4.64-6.95-7.14-12.38-7.46-3.57-.21-7.11.06-10.37,1.64-1.63.79-3.12,1.89-4.63,2.92-1.14.77-1.47,1.83-1.13,3.2.96,3.89,1.88,7.79,2.76,11.7.41,1.85.76,3.73,1.01,5.61.44,3.33-.73,6.16-2.98,8.56-3.17,3.39-7.17,5.13-11.72,5.53-1.88.17-3.84.19-5.7-.12-5.82-.96-9.75-5.19-10.88-11.22-.96-5.15.29-9.71,3.41-13.81,2.29-3.01,5.13-5.44,8.31-7.46,7.11-4.53,14.91-7.17,23.2-8.47,7.12-1.12,14.25-.7,21.38-.12,4.15.34,8.23.93,12.23,2.13,11.29,3.4,17.74,11.09,19.99,22.49,1.2,6.11,1.26,12.29,1.1,18.49-.26,10.06-.45,20.13-.73,30.19-.21,7.34-.57,14.68-.75,22.02-.1,3.99,1.37,7.45,4.16,10.31,3.6,3.7,9.09,3.72,12.77.08,1.77-1.75,3.04-3.84,3.96-6.13,1.39-3.43,2.17-7,2.51-10.68.08-.87.2-1.74.32-2.79ZM293.18,120.44c-.55.1-.95.12-1.32.24-6.64,2.26-13.12,4.89-19.12,8.54-7.18,4.36-12.41,10.28-14.52,18.62-1.27,5.01-1.34,10.09-.87,15.19.28,2.98.92,5.91,2.25,8.63,2.09,4.31,5.37,7.14,10.19,7.89,1.4.21,2.85.2,4.27.12,7.13-.37,12.92-3.38,17.3-9.04.6-.77.94-1.58.95-2.61.1-7.41.26-14.81.41-22.22.15-7.34.31-14.67.46-22.01.02-1.08,0-2.16,0-3.35Z" class="cls-1"></path>
        <path d="M474.43,35.4h28.14v37.03h33.04v4.08h-32.95c-.02,1.05-.06,1.9-.06,2.76,0,22.72,0,45.44,0,68.17,0,2.86-.02,5.72.02,8.57.05,3.35.62,6.63,1.66,9.82,2.85,8.72,11.85,13.11,20.5,10.03,2.37-.84,4.3-2.32,5.96-4.15,3.94-4.35,5.7-9.65,6.71-15.29.11-.6.18-1.2.29-1.91h2.55c.16,2.47-.37,4.85-.9,7.2-1.61,7.07-4.4,13.56-9.54,18.86-5.29,5.47-11.79,8.41-19.29,9.18-5.18.53-10.32.24-15.39-1.06-9.14-2.35-15.24-8.04-18.57-16.79-1.41-3.71-2.23-7.57-2.46-11.52-.21-3.66-.35-7.34-.35-11.01-.03-23.27-.02-46.53-.02-69.8v-2.92c-2.61-.02-5.1-.05-7.58-.05-2.52,0-5.04,0-7.56,0h-7.62v-4.14c7.7-.02,15.36,0,23.27-.02.05-.93.12-1.71.12-2.49,0-10.68,0-21.36,0-32.04,0-.8,0-1.59,0-2.5Z" class="cls-1"></path>
        <path d="M420.03,79.25c-3.31.22-6.05.92-8.66,2.15-5.79,2.72-10.47,6.78-14.33,11.84-.73.95-1.04,1.97-1.04,3.2.03,25.1.02,50.21.04,75.31,0,1.35.13,2.73.46,4.03.94,3.75,3.16,6.54,6.94,7.62,2.72.78,5.57,1.19,8.39,1.57,2.41.33,4.86.38,7.43.56v1.65h-69.2c-.06-.5-.13-.99-.2-1.58,1.7-.19,3.25-.28,4.77-.55,1.93-.34,3.86-.75,5.75-1.28,3.66-1.02,5.67-3.59,6.34-7.23.25-1.33.39-2.7.39-4.05.02-26.53.02-53.06.02-79.6,0-4.21-1.28-8.01-3.68-11.46-1.93-2.79-4.7-4.28-7.9-5.03-1.91-.45-3.88-.67-5.82-.99-.33-.05-.73.02-1-.13-.3-.17-.68-.54-.67-.81,0-.27.43-.73.71-.75,1.76-.18,3.52-.27,5.29-.37,6.18-.35,12.36-.68,18.54-1.04,6.04-.35,12.08-.75,18.13-1.11.88-.05,1.78,0,2.65-.12,2.04-.26,2.72.59,2.67,2.51-.1,3.67-.03,7.35-.03,11.02,0,1.63,0,3.25,0,4.96.98.03,1.23-.71,1.62-1.18,3.34-4.06,6.98-7.82,11.2-10.97,4.92-3.67,10.3-6.35,16.42-7.31,3.59-.56,7.19-.65,10.7.54,7.13,2.42,11.2,7.48,12.32,14.83.62,4.09.18,8.14-1.55,11.98-2.95,6.55-8.87,10.17-16.73,9.3-1.08-.12-2.15-.34-3.2-.63-7.6-2.07-10.7-8.18-10.09-15.38.27-3.22,1.51-6.19,2.59-9.19.25-.68.44-1.38.74-2.32Z" class="cls-1"></path>
        <path d="M371.97,245.46h11.69c3.06,10.17,6.11,20.28,9.15,30.39.13,0,.27-.01.4-.02,2.83-10.11,5.66-20.23,8.49-30.35h13.3c2.75,10.12,5.48,20.17,8.22,30.22.17,0,.33.02.5.03,3.15-10.04,6.31-20.09,9.49-30.23,3.79,0,7.51,0,11.22,0,.03,1.44-13.46,45.01-14.68,47.38h-13.41c-1.33-5.05-2.65-10.08-3.98-15.12-1.32-4.98-2.64-9.95-3.96-14.93-.14,0-.29-.01-.43-.02-1.33,4.99-2.66,9.98-3.98,14.97-1.32,4.98-2.62,9.97-3.96,15.05h-13.51c-4.83-15.74-9.67-31.48-14.55-47.37Z" class="cls-1"></path>
        <path d="M575.86,273.96c3.78,6.13,7.61,12.35,11.58,18.79-.81.09-1.32.19-1.84.2-3.33.01-6.67-.04-10,.03-1.23.03-1.97-.39-2.62-1.46-3.16-5.24-6.45-10.4-9.6-15.64-.76-1.26-1.61-1.78-3.09-1.72-2.99.11-5.99.03-8.98.04-.66,0-1.32.07-2.23.12v18.5h-11.05v-47.3c.58-.05,1.11-.14,1.63-.14,10.28,0,20.55-.03,30.83.03,1.75.01,3.59.12,5.22.68,5.08,1.74,8.32,5.35,9.41,10.62,1.13,5.41.05,10.32-4.31,14.06-1.42,1.22-3.17,2.07-4.94,3.2ZM549.21,263.11c.37.08.63.19.89.19,6.65.01,13.31.03,19.96-.01.85,0,1.75-.27,2.54-.61,1.34-.58,1.96-1.83,1.83-3.32-.13-1.49-.75-2.28-2.34-2.66-.98-.24-2.01-.36-3.01-.36-6.11-.03-12.22-.02-18.33-.01-.52,0-1.03.11-1.54.17v6.63Z" class="cls-1"></path>
        <path d="M219.53,250.36c-1.67,3.29-3.26,6.42-4.89,9.64-1.36-.65-2.57-1.25-3.79-1.8-5.87-2.65-12.04-3.78-18.46-3.43-1.96.11-3.91.48-5.66,1.5-1.14.66-1.9,1.56-1.85,2.94.05,1.36.99,2.11,2.11,2.47,1.35.43,2.76.8,4.16.87,4.42.22,8.84.3,13.26.42,3.02.08,5.96.58,8.76,1.69,5,1.99,8.17,5.53,8.88,10.98.77,5.93-.88,10.9-5.98,14.41-2.79,1.92-5.92,3.04-9.24,3.59-7.45,1.24-14.9,1.33-22.26-.56-5.15-1.32-9.5-4.24-13.9-7.33,1.7-3.29,3.35-6.46,5.03-9.71,1.65.97,3.17,1.87,4.69,2.76,5.48,3.2,11.43,4.59,17.74,4.61,2.79.01,5.61.12,8.27-.85,1.25-.46,2.55-1.05,3.54-1.92,2.18-1.93,1.46-5.14-1.35-5.92-1.81-.5-3.74-.67-5.63-.76-4.55-.22-9.12-.15-13.66-.49-3.77-.28-7.22-1.64-10.35-3.91-6.65-4.81-7.57-17.58,1.84-22.5,2.68-1.4,5.53-2.29,8.5-2.73,6.33-.93,12.62-.74,18.79,1.08,3.92,1.15,7.64,2.78,11.45,4.95Z" class="cls-1"></path>
        <path d="M319.78,256.3v6.6h16.45v10.78c-1.76.27-3.58.1-5.39.13-1.84.03-3.67,0-5.51,0h-5.55v7.95c.83.04,1.61.12,2.4.12,9.19,0,18.37,0,27.56.01.8,0,1.59.07,2.46.11v10.54c-1.42.49-39.31.7-42.96.25-.47-1.39-.61-44.65-.13-47.31h41.73c.42,1.39.54,7.5.17,10.78-2.51.06-5.06.02-7.62.03-2.65,0-5.31,0-7.96,0h-15.66Z" class="cls-1"></path>
        <path d="M494.75,245.49c7.72,15.74,15.4,31.4,23.17,47.25-.71.09-1.16.2-1.61.2-3.06.01-6.13-.04-9.19.03-1.12.03-1.73-.34-2.19-1.36-1.27-2.78-2.63-5.51-4-8.35h-1.88c-7.28,0-14.56.05-21.84-.04-1.56-.02-2.29.55-2.86,1.91-.94,2.25-2.09,4.42-3.13,6.64-.3.64-.62,1.18-1.47,1.17-3.66-.02-7.32,0-10.84,0-.18-.23-.24-.28-.26-.34-.03-.06-.06-.14-.04-.19,7.5-15.61,15.01-31.22,22.56-46.93h13.59ZM495.47,272.3c-2.5-5.1-4.84-9.87-7.35-15.01-2.67,5.14-5,9.97-7.34,15.01h14.7Z" class="cls-1"></path>
        <path d="M622.45,256.21h-16.62v-10.71h44.57v10.63c-5.61.25-11.23-.02-17.06.16v36.52h-10.89v-36.6Z" class="cls-1"></path>
        <path d="M257.67,292.66v-36.38h-16.37c-.33-3.71-.2-7.19-.09-10.79h44.5v10.63c-5.59.28-11.2-.02-17.02.18v36.27c-1.75.47-8.67.53-11.02.09Z" class="cls-1"></path>
      </g>
    </g>
  </g>
</svg>